<svg xmlns="http://www.w3.org/2000/svg" viewBox="0 0 32 32">
  <rect width="32" height="32" rx="7" fill="#009247"/>
  <path d="M5.2 13.4h13.6l3.8-3.4H9z" fill="#ecc080"/>
  <path d="M18.8 13.4 22.6 10v13.2c0 .5-.4.9-.9.9h-2.9z" fill="#b07a3a"/>
  <path d="M5.2 13.4h13.6v13.4c0 .5-.4.9-.9.9H6.1c-.5 0-.9-.4-.9-.9V13.4z" fill="#d6a25c"/>
  <path d="M10.6 13.4h2.2v13.4h-2.2z" fill="#f6e7b8"/>
  <path d="M5.2 19h13.6v2.2H5.2z" fill="#f6e7b8"/>
  <rect x="16.6" y="6.2" width="11.6" height="9.4" rx="0.7" fill="#f4fdf7" stroke="#0a7038" stroke-width="0.65"/>
  <rect x="17.5" y="7.1" width="9.8" height="7.6" rx="0.3" fill="none" stroke="#0a7038" stroke-width="0.4" opacity="0.55"/>
  <text x="22.4" y="13.2" text-anchor="middle" font-size="4.1" font-family="DejaVu Sans, ui-sans-serif, sans-serif" font-weight="700" fill="#0a7038">$50</text>
</svg>
